<?xml version="1.0" encoding="UTF-8"?>
<!DOCTYPE svg PUBLIC "-//W3C//DTD SVG 1.1//EN" "http://www.w3.org/Graphics/SVG/1.1/DTD/svg11.dtd">
<svg xmlns="http://www.w3.org/2000/svg" version="1.1" width="512px" height="512px" style="shape-rendering:geometricPrecision; text-rendering:geometricPrecision; image-rendering:optimizeQuality; fill-rule:evenodd; clip-rule:evenodd" xmlns:xlink="http://www.w3.org/1999/xlink">
<g><path style="opacity:0.98" fill="#000000" d="M 157.5,-0.5 C 173.167,-0.5 188.833,-0.5 204.5,-0.5C 206.604,1.37183 207.937,3.70516 208.5,6.5C 207.892,9.95832 205.892,12.4583 202.5,14C 188.5,14.3333 174.5,14.6667 160.5,15C 157.609,16.2742 154.942,17.7742 152.5,19.5C 149.291,22.228 146.791,25.5613 145,29.5C 144.333,50.8333 144.333,72.1667 145,93.5C 147.072,100.573 151.572,105.406 158.5,108C 221.442,109.656 284.442,109.989 347.5,109C 353.239,108.3 357.906,105.8 361.5,101.5C 363.64,99.2995 365.14,96.6328 366,93.5C 366.667,72.1667 366.667,50.8333 366,29.5C 363.002,21.8362 357.502,17.0029 349.5,15C 310.5,14.6667 271.5,14.3333 232.5,14C 229.292,12.5627 227.625,10.0627 227.5,6.5C 227.15,3.54661 228.15,1.21328 230.5,-0.5C 271.5,-0.5 312.5,-0.5 353.5,-0.5C 367.414,3.57997 376.581,12.58 381,26.5C 381.667,50.1667 381.667,73.8333 381,97.5C 376.624,111.877 367.124,120.71 352.5,124C 287.833,124.667 223.167,124.667 158.5,124C 143.85,120.683 134.35,111.849 130,97.5C 129.333,73.8333 129.333,50.1667 130,26.5C 134.419,12.58 143.586,3.57997 157.5,-0.5 Z"/></g>
<g><path style="opacity:1" fill="#94ca80" d="M 208.5,6.5 C 214.833,6.5 221.167,6.5 227.5,6.5C 227.625,10.0627 229.292,12.5627 232.5,14C 271.5,14.3333 310.5,14.6667 349.5,15C 357.502,17.0029 363.002,21.8362 366,29.5C 366.667,50.8333 366.667,72.1667 366,93.5C 365.14,96.6328 363.64,99.2995 361.5,101.5C 296.832,101.667 232.166,101.5 167.5,101C 159.388,97.8875 154.555,92.0542 153,83.5C 152.5,62.1693 152.333,40.8359 152.5,19.5C 154.942,17.7742 157.609,16.2742 160.5,15C 174.5,14.6667 188.5,14.3333 202.5,14C 205.892,12.4583 207.892,9.95832 208.5,6.5 Z"/></g>
<g><path style="opacity:1" fill="#7bb97d" d="M 152.5,19.5 C 152.333,40.8359 152.5,62.1693 153,83.5C 154.555,92.0542 159.388,97.8875 167.5,101C 232.166,101.5 296.832,101.667 361.5,101.5C 357.906,105.8 353.239,108.3 347.5,109C 284.442,109.989 221.442,109.656 158.5,108C 151.572,105.406 147.072,100.573 145,93.5C 144.333,72.1667 144.333,50.8333 145,29.5C 146.791,25.5613 149.291,22.228 152.5,19.5 Z"/></g>
<g><path style="opacity:1" fill="#030402" d="M 212.5,29.5 C 221.214,28.2837 229.214,30.117 236.5,35C 242.435,44.7231 239.768,49.0564 228.5,48C 224.315,44.8912 219.648,43.8912 214.5,45C 213.167,46.3333 213.167,47.6667 214.5,49C 221.434,51.4683 228.101,54.4683 234.5,58C 242.866,66.0958 243.699,74.9291 237,84.5C 227.779,91.8975 217.613,93.3975 206.5,89C 201.053,86.5564 197.387,82.5564 195.5,77C 196.096,72.615 198.596,70.115 203,69.5C 207.052,71.204 210.885,73.3707 214.5,76C 218.909,77.2618 222.743,76.4285 226,73.5C 226.684,72.2161 226.517,71.0495 225.5,70C 217.964,67.0465 210.631,63.7132 203.5,60C 194.779,46.2932 197.779,36.1265 212.5,29.5 Z"/></g>
<g><path style="opacity:1" fill="#020302" d="M 260.5,29.5 C 272.268,29.0427 283.935,29.5427 295.5,31C 299.22,41.1334 295.554,45.6334 284.5,44.5C 284.667,58.504 284.5,72.504 284,86.5C 281.928,91.1433 278.428,92.6433 273.5,91C 271.951,89.786 270.785,88.286 270,86.5C 269.5,72.504 269.333,58.504 269.5,44.5C 265.161,45.1539 261.327,44.1539 258,41.5C 255.511,36.7565 256.345,32.7565 260.5,29.5 Z"/></g>
<g><path style="opacity:1" fill="#040503" d="M 327.5,35.5 C 327.5,49.5 327.5,63.5 327.5,77.5C 331.167,77.5 334.833,77.5 338.5,77.5C 342.385,77.886 344.385,80.0526 344.5,84C 344.205,86.9234 342.871,89.2568 340.5,91C 332.5,91.6667 324.5,91.6667 316.5,91C 314.951,89.786 313.785,88.286 313,86.5C 312.333,69.1667 312.333,51.8333 313,34.5C 315.665,29.5656 319.498,28.3989 324.5,31C 326.141,32.129 327.141,33.629 327.5,35.5 Z"/></g>
<g><path style="opacity:1" fill="#5c7f50" d="M 327.5,35.5 C 328.496,48.9898 328.829,62.6565 328.5,76.5C 332.042,76.1872 335.375,76.5206 338.5,77.5C 334.833,77.5 331.167,77.5 327.5,77.5C 327.5,63.5 327.5,49.5 327.5,35.5 Z"/></g>
<g><path style="opacity:1" fill="#040503" d="M 170.5,77.5 C 178.163,76.0423 181.663,79.0423 181,86.5C 177.468,92.2904 173.135,92.957 168,88.5C 165.592,84.0337 166.425,80.367 170.5,77.5 Z"/></g>
<g><path style="opacity:0.982" fill="#000101" d="M 312.5,243.5 C 310.604,246.034 308.104,247.701 305,248.5C 298.074,247.302 291.407,245.302 285,242.5C 285.821,258.012 278.488,265.012 263,263.5C 262.5,271.159 262.334,278.826 262.5,286.5C 268.848,285.884 273.682,288.218 277,293.5C 303.743,284.475 330.577,275.641 357.5,267C 349.908,264.136 342.242,261.469 334.5,259C 330.95,256.454 329.617,252.954 330.5,248.5C 331.865,245.232 334.365,243.899 338,244.5C 345.155,245.884 352.155,247.884 359,250.5C 361.554,248.288 364.387,246.455 367.5,245C 377.167,244.333 386.833,244.333 396.5,245C 399.937,246.105 402.437,248.272 404,251.5C 404.667,261.833 404.667,272.167 404,282.5C 400.869,288.151 396.035,290.818 389.5,290.5C 389.5,334.5 389.5,378.5 389.5,422.5C 395.974,421.482 400.807,423.815 404,429.5C 404.667,439.833 404.667,450.167 404,460.5C 401.889,464.944 398.389,467.444 393.5,468C 385.833,468.667 378.167,468.667 370.5,468C 368.392,467.64 366.392,466.973 364.5,466C 362.946,464.108 361.112,462.608 359,461.5C 332.166,470.444 305.499,479.777 279,489.5C 278.841,494.916 278.174,500.25 277,505.5C 275.086,507.856 272.919,509.856 270.5,511.5C 260.5,511.5 250.5,511.5 240.5,511.5C 238.081,509.856 235.914,507.856 234,505.5C 232.826,500.25 232.159,494.916 232,489.5C 205,479.833 178,470.167 151,460.5C 149.01,464.49 145.843,466.99 141.5,468C 133.5,468.667 125.5,468.667 117.5,468C 112.611,467.444 109.111,464.944 107,460.5C 106.333,450.167 106.333,439.833 107,429.5C 110.039,423.564 114.872,421.231 121.5,422.5C 121.333,407.496 121.5,392.496 122,377.5C 123.272,374.778 125.439,373.444 128.5,373.5C 132.09,373.544 134.59,375.211 136,378.5C 136.5,393.163 136.667,407.83 136.5,422.5C 142.594,422.297 147.427,424.631 151,429.5C 183.178,418.996 215.344,408.496 247.5,398C 248.494,375.909 248.827,353.742 248.5,331.5C 242.731,332.366 238.231,330.366 235,325.5C 233.596,319.956 233.096,314.29 233.5,308.5C 206.124,300.042 178.79,291.375 151.5,282.5C 149.376,284.121 147.376,285.954 145.5,288C 142.607,289.149 139.607,289.649 136.5,289.5C 136.667,309.169 136.5,328.836 136,348.5C 134.458,351.892 131.958,353.892 128.5,354.5C 125.805,354.067 123.638,352.734 122,350.5C 121.5,330.503 121.333,310.503 121.5,290.5C 114.965,290.818 110.131,288.151 107,282.5C 106.333,272.167 106.333,261.833 107,251.5C 108.563,248.272 111.063,246.105 114.5,245C 124.167,244.333 133.833,244.333 143.5,245C 146.613,246.455 149.446,248.288 152,250.5C 176.896,242.535 201.729,234.368 226.5,226C 227.475,220.259 227.808,214.425 227.5,208.5C 221.06,209.21 215.06,208.043 209.5,205C 205.407,200.02 204.574,194.52 207,188.5C 219.833,174.333 232.667,160.167 245.5,146C 252.167,141.333 258.833,141.333 265.5,146C 278.333,160.167 291.167,174.333 304,188.5C 307.483,198.432 304.316,204.932 294.5,208C 291.183,208.498 287.85,208.665 284.5,208.5C 284.5,214.5 284.5,220.5 284.5,226.5C 292.573,228.691 300.573,231.191 308.5,234C 311.62,236.408 312.953,239.574 312.5,243.5 Z"/></g>
<g><path style="opacity:1" fill="#5e6b74" d="M 269.5,247.5 C 263.167,247.5 256.833,247.5 250.5,247.5C 250.667,230.83 250.5,214.163 250,197.5C 246.417,195.71 242.584,195.043 238.5,195.5C 234.209,193.071 229.542,191.904 224.5,192C 234.679,180.989 245.012,170.155 255.5,159.5C 265.988,170.155 276.321,180.989 286.5,192C 278.76,191.449 273.26,194.615 270,201.5C 269.5,216.83 269.333,232.163 269.5,247.5 Z"/></g>
<g><path style="opacity:1" fill="#4c585f" d="M 238.5,195.5 C 242.584,195.043 246.417,195.71 250,197.5C 250.5,214.163 250.667,230.83 250.5,247.5C 256.833,247.5 263.167,247.5 269.5,247.5C 260.682,248.493 251.682,248.827 242.5,248.5C 242.667,232.83 242.5,217.163 242,201.5C 241.074,199.308 239.907,197.308 238.5,195.5 Z"/></g>
<g><path style="opacity:1" fill="#78cbdb" d="M 224.5,242.5 C 225.5,242.5 226.5,242.5 227.5,242.5C 226.053,257.553 232.886,264.553 248,263.5C 248.5,271.159 248.666,278.826 248.5,286.5C 242.057,285.89 237.057,288.223 233.5,293.5C 206.797,284.766 180.13,275.932 153.5,267C 177.13,258.513 200.797,250.346 224.5,242.5 Z"/></g>
<g><path style="opacity:1" fill="#79ccdc" d="M 312.5,243.5 C 318.5,245.167 324.5,246.833 330.5,248.5C 329.617,252.954 330.95,256.454 334.5,259C 342.242,261.469 349.908,264.136 357.5,267C 330.577,275.641 303.743,284.475 277,293.5C 273.682,288.218 268.848,285.884 262.5,286.5C 262.334,278.826 262.5,271.159 263,263.5C 278.488,265.012 285.821,258.012 285,242.5C 291.407,245.302 298.074,247.302 305,248.5C 308.104,247.701 310.604,246.034 312.5,243.5 Z"/></g>
<g><path style="opacity:1" fill="#525e66" d="M 121.5,259.5 C 126.5,259.5 131.5,259.5 136.5,259.5C 136.5,264.5 136.5,269.5 136.5,274.5C 131.5,274.5 126.5,274.5 121.5,274.5C 121.5,269.5 121.5,264.5 121.5,259.5 Z"/></g>
<g><path style="opacity:1" fill="#525e65" d="M 374.5,259.5 C 379.5,259.5 384.5,259.5 389.5,259.5C 389.5,264.5 389.5,269.5 389.5,274.5C 384.5,274.5 379.5,274.5 374.5,274.5C 374.5,269.5 374.5,264.5 374.5,259.5 Z"/></g>
<g><path style="opacity:0.999" fill="#68bac7" d="M 128.5,373.5 C 128.5,367.167 128.5,360.833 128.5,354.5C 131.958,353.892 134.458,351.892 136,348.5C 136.5,328.836 136.667,309.169 136.5,289.5C 139.607,289.649 142.607,289.149 145.5,288C 147.376,285.954 149.376,284.121 151.5,282.5C 178.79,291.375 206.124,300.042 233.5,308.5C 233.096,314.29 233.596,319.956 235,325.5C 238.231,330.366 242.731,332.366 248.5,331.5C 248.827,353.742 248.494,375.909 247.5,398C 215.344,408.496 183.178,418.996 151,429.5C 147.427,424.631 142.594,422.297 136.5,422.5C 136.667,407.83 136.5,393.163 136,378.5C 134.59,375.211 132.09,373.544 128.5,373.5 Z"/></g>
<g><path style="opacity:1" fill="#68bac7" d="M 320.5,425.5 C 313.707,424.679 307.374,422.679 301.5,419.5C 302.186,415.713 301.186,412.546 298.5,410C 286.639,405.825 274.806,401.658 263,397.5C 262.5,375.503 262.333,353.503 262.5,331.5C 268.185,332.107 272.685,330.107 276,325.5C 277.404,319.956 277.904,314.29 277.5,308.5C 305.102,299.799 332.602,290.799 360,281.5C 362.895,287.697 367.728,290.364 374.5,289.5C 374.5,333.833 374.5,378.167 374.5,422.5C 368.345,422.411 363.345,424.745 359.5,429.5C 348.755,425.863 337.922,422.529 327,419.5C 323.053,419.615 320.886,421.615 320.5,425.5 Z"/></g>
<g><path style="opacity:1" fill="#505b63" d="M 248.5,301.5 C 253.5,301.5 258.5,301.5 263.5,301.5C 263.5,306.5 263.5,311.5 263.5,316.5C 258.5,316.5 253.5,316.5 248.5,316.5C 248.5,311.5 248.5,306.5 248.5,301.5 Z"/></g>
<g><path style="opacity:1" fill="#5fa8b5" d="M 246.5,414.5 C 247.497,431.659 247.83,448.992 247.5,466.5C 241.455,466.189 236.788,468.523 233.5,473.5C 206.795,464.099 180.129,454.599 153.5,445C 184.246,434.141 215.246,423.974 246.5,414.5 Z"/></g>
<g><path style="opacity:1" fill="#2f545b" d="M 246.5,414.5 C 246.56,413.957 246.893,413.624 247.5,413.5C 248.827,431.329 248.827,448.995 247.5,466.5C 247.83,448.992 247.497,431.659 246.5,414.5 Z"/></g>
<g><path style="opacity:1" fill="#2f545b" d="M 264.5,414.5 C 263.503,431.659 263.17,448.992 263.5,466.5C 262.173,448.995 262.173,431.329 263.5,413.5C 264.107,413.624 264.44,413.957 264.5,414.5 Z"/></g>
<g><path style="opacity:1" fill="#60a9b7" d="M 264.5,414.5 C 274.228,417.798 284.061,420.798 294,423.5C 297.023,423.073 299.523,421.739 301.5,419.5C 307.374,422.679 313.707,424.679 320.5,425.5C 319.822,429.273 321.156,432.106 324.5,434C 335.895,437.465 347.229,441.132 358.5,445C 331.177,454.107 304.011,463.607 277,473.5C 273.99,468.432 269.49,466.099 263.5,466.5C 263.17,448.992 263.503,431.659 264.5,414.5 Z"/></g>
<g><path style="opacity:1" fill="#515d65" d="M 121.5,437.5 C 126.5,437.5 131.5,437.5 136.5,437.5C 136.5,442.5 136.5,447.5 136.5,452.5C 131.5,452.5 126.5,452.5 121.5,452.5C 121.5,447.5 121.5,442.5 121.5,437.5 Z"/></g>
<g><path style="opacity:1" fill="#515d65" d="M 374.5,437.5 C 379.5,437.5 384.5,437.5 389.5,437.5C 389.5,442.5 389.5,447.5 389.5,452.5C 384.5,452.5 379.5,452.5 374.5,452.5C 374.5,447.5 374.5,442.5 374.5,437.5 Z"/></g>
<g><path style="opacity:1" fill="#505b63" d="M 248.5,481.5 C 253.5,481.5 258.5,481.5 263.5,481.5C 263.5,486.5 263.5,491.5 263.5,496.5C 258.5,496.5 253.5,496.5 248.5,496.5C 248.5,491.5 248.5,486.5 248.5,481.5 Z"/></g>
</svg>
